<?xml version="1.0" encoding="UTF-8" standalone="no"?>
<!-- Created with Inkscape (http://www.inkscape.org/) -->

<svg
   xmlns:dc="http://purl.org/dc/elements/1.1/"
   xmlns:cc="http://creativecommons.org/ns#"
   xmlns:rdf="http://www.w3.org/1999/02/22-rdf-syntax-ns#"
   xmlns:svg="http://www.w3.org/2000/svg"
   xmlns="http://www.w3.org/2000/svg"
   xmlns:sodipodi="http://sodipodi.sourceforge.net/DTD/sodipodi-0.dtd"
   xmlns:inkscape="http://www.inkscape.org/namespaces/inkscape"
   inkscape:export-ydpi="263.07874"
   inkscape:export-xdpi="263.07874"
   inkscape:export-filename="/home/nicola/Documents/dotdotdot/progetto_formazione_interna/reveal/images/sinusoid.png"
   sodipodi:docname="sinusoid.svg"
   inkscape:version="0.48.5 r10040"
   version="1.1"
   id="svg2"
   height="229.32817"
   width="352.47256">
  <sodipodi:namedview
     id="base"
     pagecolor="#ffffff"
     bordercolor="#666666"
     borderopacity="1.0"
     inkscape:pageopacity="0"
     inkscape:pageshadow="2"
     inkscape:zoom="1.28"
     inkscape:cx="103.53563"
     inkscape:cy="2.1223658"
     inkscape:document-units="px"
     inkscape:current-layer="rest"
     showgrid="false"
     inkscape:window-width="1440"
     inkscape:window-height="834"
     inkscape:window-x="0"
     inkscape:window-y="27"
     inkscape:window-maximized="1"
     showguides="true"
     inkscape:guide-bbox="true"
     fit-margin-top="0"
     fit-margin-left="0"
     fit-margin-right="0"
     fit-margin-bottom="0"
     inkscape:snap-to-guides="true"
     inkscape:snap-grids="true">
    <sodipodi:guide
       orientation="0,1"
       position="25.622557,129.47289"
       id="guide4065" />
    <sodipodi:guide
       orientation="0,1"
       position="216.26199,27.112688"
       id="guide4331" />
    <sodipodi:guide
       orientation="0,1"
       position="280.34354,262.44666"
       id="guide4333" />
    <sodipodi:guide
       orientation="1,0"
       position="-39.511793,9.4350188"
       id="guide4357" />
    <sodipodi:guide
       orientation="0,1"
       position="103.58753,227.41567"
       id="guide5350" />
    <sodipodi:guide
       position="-357.13673,26.332187"
       orientation="0,707.69678"
       id="guide5352" />
    <sodipodi:guide
       position="350.56005,26.332187"
       orientation="-281.6647,0"
       id="guide5354" />
    <sodipodi:guide
       position="350.56005,307.99688"
       orientation="0,-707.69678"
       id="guide5356" />
    <sodipodi:guide
       position="-357.13673,307.99688"
       orientation="281.6647,0"
       id="guide5358" />
    <sodipodi:guide
       orientation="1,0"
       position="31.219567,15.283644"
       id="guide5364" />
    <sodipodi:guide
       id="guide6442"
       position="350.56005,-10.128006"
       orientation="0,1" />
  </sodipodi:namedview>
  <defs
     id="defs4">
    <marker
       inkscape:stockid="Arrow1Mend"
       orient="auto"
       refY="0"
       refX="0"
       id="Arrow1Mend"
       style="overflow:visible">
      <path
         inkscape:connector-curvature="0"
         id="path3789"
         d="M 0,0 5,-5 -12.5,0 5,5 0,0 z"
         style="fill-rule:evenodd;stroke:#000000;stroke-width:1pt"
         transform="matrix(-0.4,0,0,-0.4,-4,0)" />
    </marker>
    <marker
       inkscape:stockid="Arrow1Mstart"
       orient="auto"
       refY="0"
       refX="0"
       id="Arrow1Mstart"
       style="overflow:visible">
      <path
         inkscape:connector-curvature="0"
         id="path3786"
         d="M 0,0 5,-5 -12.5,0 5,5 0,0 z"
         style="fill-rule:evenodd;stroke:#000000;stroke-width:1pt"
         transform="matrix(0.4,0,0,0.4,4,0)" />
    </marker>
    <marker
       inkscape:stockid="Arrow1Lstart"
       orient="auto"
       refY="0"
       refX="0"
       id="Arrow1Lstart"
       style="overflow:visible">
      <path
         inkscape:connector-curvature="0"
         id="path3780"
         d="M 0,0 5,-5 -12.5,0 5,5 0,0 z"
         style="fill-rule:evenodd;stroke:#000000;stroke-width:1pt"
         transform="matrix(0.8,0,0,0.8,10,0)" />
    </marker>
    <marker
       inkscape:stockid="Arrow1Mend"
       orient="auto"
       refY="0"
       refX="0"
       id="Arrow1Mend-3"
       style="overflow:visible">
      <path
         inkscape:connector-curvature="0"
         id="path3789-6"
         d="M 0,0 5,-5 -12.5,0 5,5 0,0 z"
         style="fill-rule:evenodd;stroke:#000000;stroke-width:1pt"
         transform="matrix(-0.4,0,0,-0.4,-4,0)" />
    </marker>
    <marker
       inkscape:stockid="Arrow1Mstart"
       orient="auto"
       refY="0"
       refX="0"
       id="Arrow1Mstart-7"
       style="overflow:visible">
      <path
         inkscape:connector-curvature="0"
         id="path3786-5"
         d="M 0,0 5,-5 -12.5,0 5,5 0,0 z"
         style="fill-rule:evenodd;stroke:#000000;stroke-width:1pt"
         transform="matrix(0.4,0,0,0.4,4,0)" />
    </marker>
  </defs>
  <metadata
     id="metadata7">
    <rdf:RDF>
      <cc:Work
         rdf:about="">
        <dc:format>image/svg+xml</dc:format>
        <dc:type
           rdf:resource="http://purl.org/dc/dcmitype/StillImage" />
        <dc:title />
      </cc:Work>
    </rdf:RDF>
  </metadata>
  <g
     inkscape:groupmode="layer"
     id="layer1"
     inkscape:label="noise"
     style="display:inline">
    <path
       id="path4018"
       title="0.5 + 0.5*(cos(2*x) + cos(2.1*x)+ cos(2.89*x)+ cos(3*x))"
       d="m 30.151539,265.45016 c 0.356009,-1.05157 0.712019,2.75216 1.068028,1.70059 0.35601,-1.05157 0.712019,6.06692 1.068029,5.01535 0.356009,-1.05157 0.712019,9.12721 1.068028,8.07564 0.35601,-1.05156 0.712019,11.77899 1.068028,10.72742 0.35601,-1.05157 0.712019,13.89067 1.068029,12.83911 0.356009,-1.05157 0.712019,15.3603 1.068028,14.30873 0.35601,-1.05156 0.712019,16.12097 1.068029,15.0694 0.356009,-1.05156 0.712018,16.14417 1.068028,15.09261 0.356009,-1.05157 0.712019,15.44109 1.068028,14.38952 0.35601,-1.05157 0.712019,14.06153 1.068029,13.00996 0.356009,-1.05157 0.712019,12.09056 1.068028,11.039 0.356009,-1.05157 0.712019,9.64344 1.068028,8.59187 0.35601,-1.05157 0.712019,6.85859 1.068029,5.80702 0.356009,-1.05156 0.712019,3.88951 1.068028,2.83794 0.35601,-1.05157 0.712019,0.8959 1.068028,-0.15567 0.35601,-1.05156 0.712019,-1.96551 1.068029,-3.01708 0.356009,-1.05157 0.712019,-4.54973 1.068028,-5.60129 0.35601,-1.05157 0.712019,-6.73146 1.068029,-7.78303 0.356009,-1.05157 0.712018,-8.41186 1.068028,-9.46343 0.356009,-1.05157 0.712019,-9.52347 1.068028,-10.57504 0.35601,-1.05156 0.712019,-10.03332 1.068029,-11.08489 0.356009,-1.05157 0.712018,-9.94392 1.068028,-10.99549 0.356009,-1.05157 0.712019,-9.29202 1.068028,-10.34358 0.35601,-1.05157 0.712019,-8.14549 1.068029,-9.19705 0.356009,-1.05157 0.712019,-6.5983 1.068028,-7.64987 0.356009,-1.05156 0.712019,-4.76404 1.068028,-5.8156 0.35601,-1.05157 0.712019,-2.76845 1.068029,-3.82002 0.356009,-1.05157 0.712019,-0.74126 1.068029,-1.79283 0.35601,-1.05157 0.71202,1.1919 1.06803,0.14033 0.35601,-1.05157 0.71202,2.91727 1.06803,1.86571 0.35601,-1.05157 0.71201,4.33977 1.06802,3.28821 0.35601,-1.05157 0.71202,5.38847 1.06803,4.3369 0.35601,-1.05156 0.71202,6.0204 1.06803,4.96884 0.35601,-1.05157 0.71202,6.22259 1.06803,5.17103 0.35601,-1.05157 0.71202,6.01204 1.06803,4.96047 0.356005,-1.05156 0.712015,5.43374 1.068025,4.38218 0.35601,-1.05157 0.71201,4.55701 1.06802,3.50545 0.35601,-1.05157 0.71202,3.47022 1.06803,2.41865 0.35601,-1.05156 0.71202,2.27427 1.06803,1.2227 0.35601,-1.05157 0.71202,1.07544 1.06803,0.0239 0.35601,-1.05157 0.71202,-0.0221 1.06803,-1.07365 0.35601,-1.05156 0.71202,-0.9235 1.06803,-1.97507 0.35601,-1.05156 0.71202,-1.55005 1.06802,-2.60161 0.35601,-1.05156 0.71202,-1.84442 1.06803,-2.89599 0.35601,-1.05156 0.71202,-1.77487 1.06803,-2.82644 0.35601,-1.05157 0.71202,-1.33749 1.06803,-2.38905 0.35601,-1.05157 0.71202,-0.55664 1.06803,-1.60821 0.35601,-1.05156 0.71202,0.51647 1.06803,-0.53509 0.35601,-1.05157 0.71202,1.80711 1.06802,0.75555 0.35601,-1.05157 0.71202,3.22187 1.06803,2.1703 0.35601,-1.05156 0.71202,4.65487 1.06803,3.6033 0.35601,-1.05157 0.71202,5.99477 1.06803,4.9432 0.35601,-1.05157 0.71202,7.13242 1.06803,6.08086 0.35601,-1.05157 0.71202,7.96826 1.06803,6.91669 0.35601,-1.05156 0.71202,8.41931 1.06802,7.36775 0.35601,-1.05157 0.71202,8.42517 1.06803,7.3736 0.35601,-1.05156 0.71202,7.95274 1.06803,6.90117 0.35601,-1.05157 0.71202,6.99905 1.06803,5.94748 0.35601,-1.05156 0.71202,5.59246 1.06803,4.5409 0.35601,-1.05157 0.71202,3.79171 1.06803,2.74014 0.35601,-1.05157 0.71202,1.68311 1.06803,0.63154 0.356,-1.05156 0.71201,-0.62411 1.06802,-1.67568 0.35601,-1.05157 0.71202,-3.00392 1.06803,-4.05549 0.35601,-1.05157 0.71202,-5.32078 1.06803,-6.37235 0.35601,-1.05157 0.71202,-7.43771 1.06803,-8.48928 0.35601,-1.05156 0.712021,-9.22448 1.068031,-10.27604 0.35601,-1.05157 0.71202,-10.56572 1.06803,-11.61728 0.356,-1.05157 0.71201,-11.36801 1.06802,-12.41958 0.35601,-1.05157 0.71202,-11.56608 1.06803,-12.61765 0.35601,-1.05156 0.71202,-11.12711 1.06803,-12.17868 0.35601,-1.05157 0.71202,-10.05345 1.06803,-11.10502 0.35601,-1.05157 0.71202,-8.38305 1.06803,-9.43462 0.35601,-1.05157 0.71202,-6.18799 1.06803,-7.23956 0.356,-1.05157 0.71201,-3.57089 1.06802,-4.62246 0.35601,-1.05157 0.71202,-0.65954 1.06803,-1.71111 0.35601,-1.05156 0.71202,2.40005 1.06803,1.34848 0.35601,-1.05157 0.71202,5.45156 1.06803,4.39999 0.35601,-1.05157 0.71202,8.33716 1.06803,7.28559 0.35601,-1.05156 0.71202,10.90624 1.06803,9.85467 0.356,-1.05156 0.71201,13.02388 1.06802,11.97231 0.35601,-1.05157 0.71202,14.57842 1.06803,13.52685 0.35601,-1.05157 0.71202,15.48779 1.06803,14.43622 0.35601,-1.05156 0.71202,15.70406 1.06803,14.6525 0.35601,-1.05157 0.71202,15.21613 1.06803,14.16457 0.35601,-1.05156 0.71202,14.05033 1.06803,12.99876 0.35601,-1.05157 0.71201,12.26877 1.06802,11.21721 0.35601,-1.05157 0.71202,9.96594 1.06803,8.91437 0.35601,-1.05156 0.71202,7.26315 1.06803,6.21158 0.35601,-1.05156 0.71202,4.30176 1.06803,3.2502 0.35601,-1.05157 0.71202,1.23521 1.06803,0.18364 0.35601,-1.05156 0.71202,-1.77956 1.06803,-2.83113 0.35601,-1.05156 0.71201,-4.59083 1.06802,-5.6424 0.35601,-1.05156 0.71202,-7.06034 1.06803,-8.11191 0.35601,-1.05157 0.71202,-9.07077 1.06803,-10.12234 0.35601,-1.05156 0.71202,-10.53178 1.06803,-11.58335 0.35601,-1.05156 0.71202,-11.38466 1.06803,-12.43623 0.35601,-1.05157 0.71202,-11.60486 1.06803,-12.65643 0.35601,-1.05156 0.71201,-11.20262 1.06802,-12.25418 0.35601,-1.05157 0.71202,-10.22163 1.06803,-11.27319 0.35601,-1.05157 0.71202,-8.73569 1.06803,-9.78726 0.35601,-1.05157 0.71202,-6.84383 1.06803,-7.8954 0.35601,-1.05157 0.71202,-4.66389 1.06803,-5.71546 0.35601,-1.05157 0.71202,-2.32531 1.06803,-3.37688 0.35601,-1.05157 0.71202,0.0387 1.06802,-1.01287 0.35601,-1.05156 0.71202,2.299 1.06803,1.24743 0.35601,-1.05157 0.71202,4.33785 1.06803,3.28629 0.35601,-1.05157 0.71202,6.05557 1.06803,5.004 0.35601,-1.05156 0.71202,7.37571 1.06803,6.32414 0.35601,-1.05157 0.71202,8.24884 1.06803,7.19728 0.35601,-1.05157 0.71202,8.6546 1.06802,7.60303 0.35601,-1.05156 0.71202,8.60184 1.06803,7.55027 0.35601,-1.05157 0.71202,8.12698 1.06803,7.07542 0.35601,-1.05157 0.71202,7.29083 1.06803,6.23926 0.35601,-1.05157 0.71202,6.17376 1.06803,5.12219 0.35601,-1.05156 0.71202,4.86994 1.06803,3.81837 0.35601,-1.05157 0.71202,3.4808 1.06802,2.42923 0.35601,-1.05157 0.71202,2.10819 1.06803,1.05662 0.35601,-1.05156 0.71202,0.84767 1.06803,-0.2039 0.35601,-1.05156 0.71202,-0.21763 1.06803,-1.2692 0.35601,-1.05157 0.71202,-1.02221 1.06803,-2.07378 0.35601,-1.05156 0.71202,-1.52204 1.06803,-2.57361 0.35601,-1.05156 0.71202,-1.69717 1.06803,-2.74873 0.356,-1.05157 0.71201,-1.55235 1.06802,-2.60392 0.35601,-1.05156 0.71202,-1.11625 1.06803,-2.16782 0.35601,-1.05157 0.71202,-0.4391 1.06803,-1.49067 0.35601,-1.05156 0.71202,0.41137 1.06803,-0.6402 0.35601,-1.05156 0.71202,1.35472 1.06803,0.30316 0.35601,-1.05157 0.71202,2.30375 1.06803,1.25219 0.356,-1.05157 0.71201,3.17073 1.06802,2.11917 0.35601,-1.05157 0.71202,3.87357 1.06803,2.822 0.35601,-1.05156 0.71202,4.34176 1.06803,3.29019 0.35601,-1.05156 0.71202,4.52139 1.06803,3.46982 0.35601,-1.05156 0.71202,4.37922 1.06803,3.32766 0.35601,-1.05157 0.71202,3.90515 1.06803,2.85358 0.356,-1.05157 0.71201,3.11342 1.06802,2.06186 0.35601,-1.05157 0.71202,2.04197 1.06803,0.99041 0.35601,-1.05157 0.71202,0.75036 1.06803,-0.30121 0.35601,-1.05156 0.71202,-0.68384 1.06803,-1.73541 0.35601,-1.05156 0.71202,-2.16983 1.06803,-3.22139 0.35601,-1.05157 0.71202,-3.6093 1.06803,-4.66087 0.35601,-1.05157 0.71201,-4.90279 1.06802,-5.95436 0.35601,-1.05157 0.71202,-5.95609 1.06803,-7.00765 0.35601,-1.05157 0.71202,-6.68652 1.06803,-7.73809 0.35601,-1.05157 0.71202,-7.02846 1.06803,-8.08003 0.35601,-1.05157 0.71202,-6.93803 1.06803,-7.9896 0.35601,-1.05156 0.71202,-6.39632 1.06803,-7.44789 0.35601,-1.05156 0.71201,-5.41123 1.06802,-6.4628 0.35601,-1.05157 0.71202,-4.01767 1.06803,-5.06923 0.35601,-1.05157 0.71202,-2.27599 1.06803,-3.32755 0.35601,-1.05157 0.71202,-0.26901 1.06803,-1.32057 0.35601,-1.05157 0.71202,1.90249 1.06803,0.85093 0.35601,-1.05157 0.71202,4.12537 1.06803,3.0738 0.35601,-1.05157 0.71201,6.28053 1.06802,5.22896 0.35601,-1.05156 0.71202,8.24977 1.06803,7.19821 0.35601,-1.05157 0.71202,9.92267 1.06803,8.8711 0.35601,-1.05156 0.71202,11.203 1.06803,10.15144 0.35601,-1.05157 0.71202,12.0145 1.06803,10.96293 0.35601,-1.05157 0.71202,12.30536 1.06803,11.2538 0.35601,-1.05157 0.71201,12.05149 1.06802,10.99992 0.35601,-1.05156 0.71202,11.25805 1.06803,10.20648 0.35601,-1.05156 0.71202,9.95937 1.06803,8.9078 0.35601,-1.05156 0.71202,8.21723 1.06803,7.16567 0.35601,-1.05157 0.71202,6.11744 1.06803,5.06588 0.35601,-1.05157 0.71202,3.76526 1.06803,2.7137 0.35601,-1.05157 0.71202,1.27942 1.06802,0.22785 0.35601,-1.05156 0.71202,-1.2143 1.06803,-2.26587 0.35601,-1.05157 0.71202,-3.59015 1.06803,-4.64172 0.35601,-1.05157 0.71202,-5.72917 1.06803,-6.78074 0.35601,-1.05157 0.71202,-7.52579 1.06803,-8.57735 0.35601,-1.05157 0.71202,-8.89345 1.06803,-9.94502 0.35601,-1.05156 0.71202,-9.76912 1.06802,-10.82069 0.35601,-1.05156 0.71202,-10.1166 1.06803,-11.16817 0.35601,-1.05157 0.71202,-9.92796 1.06803,-10.97953 0.35601,-1.05157 0.71202,-9.22371 1.06803,-10.27528 0.35601,-1.05157 0.71202,-8.05107 1.06803,-9.10264 0.35601,-1.05157 0.71202,-6.48099 1.06803,-7.53256 0.35601,-1.05157 0.71202,-4.60371 1.06802,-5.65527 0.35601,-1.05157 0.71202,-2.52337 1.06803,-3.57493 0.35601,-1.05157 0.71202,-0.35196 1.06803,-1.40353 0.35601,-1.05156 0.71202,1.79706 1.06803,0.74549 0.35601,-1.05156 0.71202,3.81514 1.06803,2.76358 0.35601,-1.05157 0.71202,5.60451 1.06803,4.55294 0.35601,-1.05156 0.71202,7.08338 1.06803,6.03181 0.356,-1.05157 0.71201,8.18992 1.06802,7.13835 0.35601,-1.05157 0.71202,8.8852 1.06803,7.83364 0.35601,-1.05157 0.71202,9.15458 1.06803,8.10301 0.35601,-1.05157 0.71202,9.00759 1.06803,7.95603 0.35601,-1.05157 0.71202,8.47659 1.06803,7.42502 0.35601,-1.05156 0.71202,7.61392 1.06803,6.56235 0.356,-1.05156 0.71201,6.48808 1.06802,5.43651 0.35601,-1.05157 0.71202,5.17903 1.06803,4.12747 0.35601,-1.05157 0.71202,3.77296 1.06803,2.72139 0.35601,-1.05156 0.71202,2.35687 1.06803,1.3053 0.35601,-1.05157 0.71202,1.01319 1.06803,-0.0383 0.35601,-1.05156 0.71202,-0.1849 1.06803,-1.23647 0.356,-1.05156 0.71201,-1.17772 1.06802,-2.22929 0.35601,-1.05156 0.71202,-1.92214 1.06803,-2.9737 0.35601,-1.05157 0.71202,-2.39353 1.06803,-3.4451 0.35601,-1.05156 0.71202,-2.58655 1.06803,-3.63812 0.35601,-1.05156 0.71202,-2.51461 1.06803,-3.56618 0.35601,-1.05156 0.71202,-2.20812 1.06803,-3.25969 0.35601,-1.05157 0.71201,-1.71187 1.06802,-2.76343 0.35601,-1.05157 0.71202,-1.08121 1.06803,-2.13278 0.35601,-1.05156 0.71202,-0.37807 1.06803,-1.42963 0.35601,-1.05157 0.71202,0.33364 1.06803,-0.71793 0.35601,-1.05156 0.71202,0.99259 1.06803,-0.059 0.35601,-1.05157 0.71202,1.54414 1.06803,0.49258 0.35601,-1.05157 0.71201,1.94414 1.06802,0.89257 0.35601,-1.05157 0.71202,2.16179 1.06803,1.11022 0.35601,-1.05157 0.71202,2.18149 1.06803,1.12993 0.35601,-1.05157 0.71202,2.00385 1.06803,0.95228 0.35601,-1.05157 0.71202,1.64526 1.06803,0.59369 0.35601,-1.05156 0.71202,1.1367 1.06803,0.0851 0.35601,-1.05156 0.71201,0.52133 1.06802,-0.53023 0.35601,-1.05157 0.71202,-0.14865 1.06803,-1.20022 0.35601,-1.05157 0.71202,-0.81569 1.06803,-1.86726 0.35601,-1.05157 0.71202,-1.42105 1.06803,-2.47262 0.35601,-1.05156 0.71202,-1.90895 1.06803,-2.96051 0.35601,-1.05157 0.71202,-2.23054 1.06803,-3.28211 0.35601,-1.05156 0.71202,-2.34741 1.06802,-3.39898 0.35601,-1.05157 0.71202,-2.23454 1.06803,-3.28611 0.35601,-1.05156 0.71202,-1.88208 1.06803,-2.93365 0.35601,-1.05156 0.71202,-1.29647 1.06803,-2.34804 0.35601,-1.05156 0.71202,-0.5003 1.06803,-1.55186 0.35601,-1.05157 0.71202,0.46887 1.06803,-0.5827 0.35601,-1.05156 0.71202,1.5606 1.06802,0.50903 0.35601,-1.05156 0.71202,2.71455 1.06803,1.66298 0.35601,-1.05156 0.71202,3.86414 1.06803,2.81258 0.35601,-1.05157 0.71202,4.94064 1.06803,3.88907 0.35601,-1.05156 0.71202,5.87738 1.06803,4.82581 0.35601,-1.05156 0.71202,6.61393 1.06803,5.56236 0.35601,-1.05156 0.71202,7.09989 1.06802,6.04833 0.35601,-1.05157 0.71202,7.29819 1.06803,6.24662 0.35601,-1.05156 0.71202,7.18746 1.06803,6.13589 0.35601,-1.05156 0.71202,6.76351 1.06803,5.71194 0.35601,-1.05156 0.71202,6.03992 1.06803,4.98835 0.35601,-1.05156 0.71202,5.04735 1.06803,3.99578 0.35601,-1.05156 0.71202,3.83199 1.06802,2.78043 0.35601,-1.05157 0.71202,2.45304 1.06803,1.40147 0.35601,-1.05157 0.71202,0.97938 1.06803,-0.0722 0.35601,-1.05156 0.71202,-0.51427 1.06803,-1.56584 0.35601,-1.05156 0.71202,-1.95154 1.06803,-3.00311 0.35601,-1.05157 0.71202,-3.25876 1.06803,-4.31033 0.35601,-1.05157 0.71202,-4.36899 1.06803,-5.42056 0.356,-1.05156 0.71201,-5.22579 1.06802,-6.27736 0.35601,-1.05157 0.71202,-5.7863 1.06803,-6.83787 0.35601,-1.05157 0.71202,-6.02352 1.06803,-7.07509 0.35601,-1.05156 0.71202,-5.92765 1.06803,-6.97922 0.35601,-1.05157 0.71202,-5.50652 1.06803,-6.55809 0.35601,-1.05157 0.71202,-4.78482 1.06803,-5.83639 0.356,-1.05156 0.71201,-3.8027 1.06802,-4.85427 0.35601,-1.05156 0.71202,-2.61316 1.06803,-3.66472 0.35601,-1.05157 0.71202,-1.27905 1.06803,-2.33061 0.35601,-1.05157 0.71202,0.13063 1.06803,-0.92094 0.35601,-1.05156 0.71202,1.54456 1.06803,0.49299 0.35601,-1.05157 0.71202,2.89304 1.06803,1.84147 0.356,-1.05157 0.71201,4.11179 1.06802,3.06023 0.35601,-1.05157 0.71202,5.14527 1.06803,4.0937 0.35601,-1.05156 0.71202,5.94944 1.06803,4.89787 0.35601,-1.05157 0.71202,6.49377 1.06803,5.4422 0.35601,-1.05157 0.71202,6.7625 1.06803,5.71093 0.35601,-1.05157 0.71202,6.75495 1.06803,5.70339 0.35601,-1.05157 0.71201,6.48493 1.06802,5.43337 0.35601,-1.05157 0.71202,5.97949 1.06803,4.92792 0.35601,-1.05156 0.71202,5.27673 1.06803,4.22517 0.35601,-1.05157 0.71202,4.42327 1.06803,3.3717 0.35601,-1.05156 0.71202,3.47125 1.06803,2.41969 0.35601,-1.05157 0.71202,2.47507 1.06803,1.42351 0.35601,-1.05157 0.71201,1.48826 1.06802,0.43669 0.35601,-1.05157 0.71202,0.56044 1.06803,-0.49112 0.35601,-1.05157 0.71202,-0.26528 1.06803,-1.31684 0.35601,-1.05157 0.71202,-0.95443 1.06803,-2.006 0.35601,-1.05156 0.71202,-1.48264 1.06803,-2.5342 0.35601,-1.05157 0.71202,-1.83654 1.06803,-2.8881 0.35601,-1.05157 0.71201,-2.01368 1.06802,-3.06525 0.35601,-1.05156 0.71202,-2.02216 1.06803,-3.07373 0.35601,-1.05157 0.71202,-1.87929 1.06803,-2.93086 0.35601,-1.05156 0.71202,-1.6099 1.06803,-2.66147 0.35601,-1.05157 0.71202,-1.24433 1.06803,-2.2959 0.35601,-1.05157 0.71202,-0.81598 1.06803,-1.86754 0.35601,-1.05157 0.71202,-0.35905 1.06802,-1.41062 0.35601,-1.05157 0.71202,0.0938 1.06803,-0.95774 0.35601,-1.05156 0.71202,0.51365 1.06803,-0.53791 0.35601,-1.05157 0.71202,0.87672 1.06803,-0.17485 0.35601,-1.05156 0.71202,1.1659 1.06803,0.11433 0.35601,-1.05156 0.71202,1.37135 1.06803,0.31978 0.35601,-1.05157 0.71202,1.49071 1.06802,0.43914 0.35601,-1.05157 0.71202,1.5287 1.06803,0.47713 0.35601,-1.05156 0.71202,1.49636 1.06803,0.44479 0.35601,-1.05156 0.71202,1.40972 1.06803,0.35816 0.35601,-1.05157 0.71202,1.28827 1.06803,0.23671 0.35601,-1.05157 0.71202,1.15327 1.06803,0.1017 0.35601,-1.05156 0.71202,1.02587 1.06802,-0.0257 0.35601,-1.05156 0.71202,0.92544 1.06803,-0.12612 0.35601,-1.05157 0.71202,0.86804 1.06803,-0.18353 0.35601,-1.05156 0.71202,0.86525 1.06803,-0.18632 0.35601,-1.05156 0.71202,0.9232 1.06803,-0.12837 0.35601,-1.05157 0.71202,1.04224 1.06803,-0.009 0.35601,-1.05156 0.71202,1.21697 1.06803,0.1654"
       style="fill:none;stroke:#ff0000;stroke-width:0.7299338;stroke-linecap:round;stroke-linejoin:round;stroke-miterlimit:4;stroke-opacity:1;stroke-dasharray:none;stroke-dashoffset:0;display:inline"
       inkscape:connector-curvature="0" />
  </g>
  <g
     inkscape:label="ascisse"
     id="ascisse"
     inkscape:groupmode="layer"
     style="display:inline"
     transform="translate(-39.408701,-3e-6)">
    <path
       id="path5366"
       d="m 70.628268,202.21548 319.340492,0.7805"
       style="fill:none;stroke:#000000;stroke-width:1px;stroke-linecap:butt;stroke-linejoin:miter;stroke-opacity:1;marker-start:none;marker-end:url(#Arrow1Mend)"
       inkscape:connector-curvature="0" />
    <text
       xml:space="preserve"
       style="font-size:32px;font-style:normal;font-variant:normal;font-weight:normal;font-stretch:normal;line-height:125%;letter-spacing:0px;word-spacing:0px;fill:#000000;fill-opacity:1;stroke:none;font-family:'Tom\'s New Roman';-inkscape-font-specification:'Tom\'s New Roman'"
       x="370.5307"
       y="229.45618"
       id="text3017"
       sodipodi:linespacing="125%"><tspan
         sodipodi:role="line"
         id="tspan3019"
         x="370.5307"
         y="229.45618">t</tspan></text>
  </g>
  <g
     id="ordinate"
     inkscape:groupmode="layer"
     inkscape:label="ordinate"
     transform="translate(-375.93995,-90.006898)"
     style="display:inline">
    <g
       id="g6436"
       transform="matrix(1.8240005,0,0,1.8240005,501.11538,-340.29756)">
      <g
         word-spacing="normal"
         letter-spacing="normal"
         font-size-adjust="none"
         font-stretch="normal"
         font-weight="normal"
         font-variant="normal"
         font-style="normal"
         stroke-miterlimit="10.433"
         xml:space="preserve"
         transform="matrix(0.40237814,0,0,-0.40237814,-70.416175,530.77259)"
         id="g6438"
         style="font-style:normal;font-variant:normal;font-weight:normal;font-stretch:normal;letter-spacing:normal;word-spacing:normal;text-anchor:start;fill:none;stroke:#000000;stroke-linecap:butt;stroke-linejoin:miter;stroke-miterlimit:10.43299961;stroke-opacity:1;stroke-dasharray:none;stroke-dashoffset:0" />    </g>
    <path
       id="path3078"
       d="m 407.15952,91.919398 0,200.302982"
       style="fill:none;stroke:#000000;stroke-width:1px;stroke-linecap:butt;stroke-linejoin:miter;stroke-opacity:1;marker-start:url(#Arrow1Mstart);marker-end:none"
       inkscape:connector-curvature="0" />
    <text
       xml:space="preserve"
       style="font-size:32px;font-style:normal;font-variant:normal;font-weight:normal;font-stretch:normal;line-height:125%;letter-spacing:0px;word-spacing:0px;fill:#000000;fill-opacity:1;stroke:none;font-family:'Tom\'s New Roman';-inkscape-font-specification:'Tom\'s New Roman'"
       x="375.81195"
       y="125.47565"
       id="text3021"
       sodipodi:linespacing="125%"><tspan
         sodipodi:role="line"
         id="tspan3023"
         x="375.81195"
         y="125.47565">Pa</tspan></text>
  </g>
  <g
     inkscape:groupmode="layer"
     id="rest"
     inkscape:label="rest"
     style="display:inline"
     transform="translate(-39.408701,-3e-6)">
    <path
       inkscape:connector-curvature="0"
       id="path4353"
       d="m 71.52022,99.855279 318.44853,0"
       style="fill:none;stroke:#787878;stroke-width:1;stroke-linecap:butt;stroke-linejoin:miter;stroke-miterlimit:4;stroke-opacity:1;stroke-dasharray:3, 1;stroke-dashoffset:0"
       sodipodi:nodetypes="cc" />
  </g>
  <g
     inkscape:groupmode="layer"
     id="sinusoid"
     inkscape:label="sinusoids"
     style="display:inline"
     transform="translate(-39.408701,-3e-6)">
    <path
       id="path4154"
       title="sin(2*x+9.75477) +1"
       d="m 70.805963,117.83685 c 0.35358,-0.61513 0.70715,4.06675 1.06073,3.45163 0.35357,-0.61513 0.70715,3.97767 1.06073,3.36255 0.35357,-0.61513 0.70715,3.87523 1.06072,3.2601 0.35358,-0.61512 0.70716,3.75984 1.06073,3.14471 0.35358,-0.61513 0.70715,3.63195 1.06073,3.01682 0.35358,-0.61512 0.70715,3.49208 1.06073,2.87696 0.35357,-0.61513 0.70715,3.34077 1.06072,2.72564 0.35358,-0.61513 0.70716,3.17864 1.06073,2.56351 0.35358,-0.61512 0.70715,3.00632 1.06073,2.3912 0.35358,-0.61513 0.70715,2.8245 1.06073,2.20938 0.35357,-0.61513 0.70715,2.63391 1.06073,2.01878 0.35357,-0.61513 0.70715,2.43529 1.06072,1.82016 0.35358,-0.61513 0.70716,2.22945 1.06073,1.61432 0.35358,-0.61512 0.70715,2.01718 1.06073,1.40206 0.35358,-0.61513 0.70715,1.79935 1.06073,1.18422 0.35357,-0.61513 0.70715,1.57682 1.06073,0.96169 0.35357,-0.61513 0.70715,1.35046 1.06072,0.73533 0.35358,-0.61513 0.70715,1.12118 1.06073,0.50605 0.35358,-0.61513 0.70715,0.8899 1.06073,0.27476 0.35357,-0.61512 0.70715,0.65752 1.06073,0.0424 0.35357,-0.61513 0.70715,0.42496 1.06072,-0.19017 0.35358,-0.61513 0.70716,0.19316 1.06073,-0.42196 0.35358,-0.61513 0.70715,-0.037 1.06073,-0.65208 0.35358,-0.61513 0.70715,-0.26448 1.060726,-0.87961 0.35357,-0.61512 0.70715,-0.48851 1.06073,-1.10363 0.35357,-0.61513 0.70715,-0.70816 1.06072,-1.32329 0.35358,-0.61512 0.70716,-0.92254 1.06073,-1.53767 0.353583,-0.61513 0.707151,-1.13083 1.060731,-1.74595 0.35358,-0.61514 0.70715,-1.33218 1.06073,-1.9473 0.35357,-0.61513 0.70715,-1.52579 1.06072,-2.14091 0.35358,-0.61513 0.70716,-1.71088 1.06073,-2.32601 0.35358,-0.61513 0.70715,-1.88674 1.06073,-2.50187 0.35358,-0.61512 0.70715,-2.05266 1.06073,-2.66779 0.35357,-0.61513 0.70715,-2.20798 1.06073,-2.82311 0.35357,-0.61513 0.70715,-2.35209 1.06072,-2.96722 0.35358,-0.61512 0.70716,-2.4844 1.06073,-3.09953 0.35358,-0.61512 0.70715,-2.60441 1.06073,-3.21954 0.35358,-0.61512 0.70715,-2.71162 1.06073,-3.32674 0.35357,-0.61513 0.70715,-2.80562 1.06073,-3.42074 0.35357,-0.61513 0.70715,-2.88602 1.06072,-3.50115 0.35358,-0.61513 0.70715,-2.95251 1.06073,-3.56764 0.35358,-0.61512 0.70715,-3.00483 1.06073,-3.61996 0.35357,-0.61512 0.70715,-3.04277 1.06073,-3.65789 0.35357,-0.61513 0.70715,-3.06618 1.06072,-3.6813 0.35358,-0.61513 0.70716,-3.07498 1.06073,-3.69011 0.35358,-0.61512 0.70715,-3.06907 1.06073,-3.68419 0.35358,-0.61513 0.70715,-3.04856 1.06073,-3.66368 0.35357,-0.61513 0.70715,-3.01348 1.06073,-3.62861 0.35357,-0.61512 0.70715,-2.96399 1.06072,-3.57911 0.35358,-0.61513 0.70716,-2.90028 1.06073,-3.5154 0.35358,-0.61513 0.70715,-2.8226 1.06073,-3.43773 0.35358,-0.61513 0.70715,-2.73127 1.06073,-3.34639 0.35357,-0.61513 0.70715,-2.62664 1.06072,-3.24176 0.35358,-0.61513 0.70716,-2.50913 1.06073,-3.12426 0.35358,-0.61512 0.70715,-2.37919 1.06073,-2.99433 0.35358,-0.61512 0.70715,-2.23738 1.06073,-2.8525 0.35357,-0.61513 0.70715,-2.08424 1.06073,-2.69936 0.35357,-0.61513 0.70715,-1.92035 1.06072,-2.53548 0.35358,-0.61513 0.70716,-1.7464 1.06073,-2.36154 0.35358,-0.61512 0.70715,-1.56307 1.06073,-2.17819 0.35358,-0.61513 0.70715,-1.3711 1.06073,-1.98622 0.35357,-0.61513 0.70715,-1.17121 1.06073,-1.78634 0.35357,-0.61512 0.70715,-0.96423 1.06072,-1.57936 0.35358,-0.61513 0.70715,-0.75099 1.06073,-1.36612 0.35358,-0.61512 0.70715,-0.53231 1.06073,-1.14743 0.35357,-0.61513 0.70715,-0.30908 1.06073,-0.92421 0.35357,-0.61512 0.70715,-0.0822 1.06072,-0.69729 0.35358,-0.61513 0.70716,0.1475 1.06073,-0.46762 0.35358,-0.61513 0.70715,0.37904 1.06073,-0.23609 0.35358,-0.61512 0.70715,0.61152 1.06073,-0.004 0.35357,-0.61512 0.70715,0.84401 1.06073,0.22888 0.35357,-0.61513 0.70715,1.07558 1.06072,0.46045 0.35358,-0.61512 0.70716,1.30534 1.06073,0.69021 0.35358,-0.61513 0.70715,1.53234 1.06073,0.91721 0.35358,-0.61513 0.70715,1.7557 1.06073,1.14057 0.35357,-0.61512 0.70715,1.97454 1.06072,1.3594 0.35358,-0.61512 0.70716,2.18797 1.06073,1.57284 0.35358,-0.61512 0.70715,2.39514 1.06073,1.78002 0.35358,-0.61513 0.70715,2.59525 1.06073,1.98012 0.35357,-0.61512 0.70715,2.7875 1.06073,2.17237 0.35357,-0.61513 0.70715,2.97111 1.06072,2.35598 0.35358,-0.61513 0.70716,3.14536 1.06073,2.53023 0.35358,-0.61513 0.70715,3.30955 1.06073,2.69443 0.35358,-0.61513 0.70715,3.46305 1.06073,2.84792 0.35357,-0.61513 0.70715,3.60523 1.06073,2.9901 0.35357,-0.61512 0.70715,3.73553 1.06072,3.12041 0.35358,-0.61513 0.70715,3.85343 1.06073,3.2383 0.35358,-0.61513 0.70715,3.95847 1.06073,3.34334 0.35357,-0.61512 0.70715,4.05022 1.06073,3.4351 0.35357,-0.61513 0.70715,4.12833 1.06072,3.5132 0.35358,-0.61513 0.70716,4.19248 1.06073,3.57735 0.35358,-0.61512 0.70715,4.24241 1.06073,3.62729 0.35358,-0.61513 0.70715,4.27793 1.06073,3.6628 0.35357,-0.61512 0.70715,4.29891 1.06073,3.68379 0.35357,-0.61513 0.70715,4.30526 1.06072,3.69014 0.35358,-0.61514 0.70716,4.29691 1.06073,3.68179 0.35358,-0.61513 0.70715,4.27396 1.06073,3.65884 0.35358,-0.61513 0.70715,4.23648 1.06073,3.62135 0.35357,-0.61512 0.70715,4.1846 1.06072,3.56948 0.35358,-0.61513 0.70716,4.11855 1.06073,3.50342 0.35358,-0.61513 0.70715,4.03857 1.06073,3.42344 0.35358,-0.61512 0.70715,3.945 1.06073,3.32986 0.35357,-0.61512 0.70715,3.83819 1.06073,3.22307 0.35357,-0.61513 0.70715,3.71857 1.06072,3.10344 0.35358,-0.61513 0.70716,3.58663 1.06073,2.97151 0.35358,-0.61513 0.70715,3.44288 1.06073,2.82775 0.35358,-0.61513 0.70715,3.2879 1.06073,2.67278 0.35357,-0.61513 0.70715,3.12229 1.06073,2.50717 0.35357,-0.61513 0.70715,2.94673 1.06072,2.33161 0.35358,-0.61513 0.70715,2.76191 1.06073,2.14678 0.35358,-0.61513 0.70715,2.56856 1.06073,1.95343 0.35357,-0.61513 0.70715,2.36744 1.06073,1.75232 0.35357,-0.61514 0.70715,2.15936 1.06072,1.54423 0.35358,-0.61513 0.70716,1.94515 1.06073,1.33002 0.35358,-0.61512 0.70715,1.72565 1.06073,1.11053 0.35358,-0.61513 0.70715,1.50174 1.06073,0.88661 0.35357,-0.61512 0.70715,1.27431 1.06073,0.65919 0.35357,-0.61513 0.70715,1.04426 1.06072,0.42913 0.35358,-0.61512 0.70716,0.81251 1.06073,0.19738 0.35358,-0.61513 0.70715,0.57997 1.06073,-0.0351 0.35358,-0.61513 0.70715,0.34757 1.06073,-0.26756 0.35357,-0.61513 0.70715,0.11623 1.06072,-0.4989 0.35358,-0.61513 0.70716,-0.11312 1.06073,-0.72825 0.35358,-0.61513 0.70715,-0.33959 1.06073,-0.95472 0.35358,-0.61513 0.70715,-0.56225 1.06073,-1.17738 0.35357,-0.61513 0.70715,-0.78025 1.06073,-1.39537 0.35357,-0.61513 0.70715,-0.9927 1.06072,-1.60782 0.35358,-0.61514 0.70716,-1.19876 1.06073,-1.81389 0.35358,-0.61512 0.70715,-1.3976 1.06073,-2.01273 0.35358,-0.61513 0.70715,-1.58846 1.06073,-2.20359 0.35357,-0.61512 0.70715,-1.77057 1.06073,-2.38569 0.35357,-0.61513 0.70715,-1.94318 1.06072,-2.55831 0.35358,-0.61513 0.70715,-2.10565 1.06073,-2.72078 0.35358,-0.61512 0.70715,-2.25729 1.06073,-2.87242 0.35357,-0.61512 0.70715,-2.39753 1.06073,-3.01266 0.35357,-0.61512 0.70715,-2.52579 1.06072,-3.14093 0.35358,-0.61512 0.70716,-2.64159 1.06073,-3.25671 0.35358,-0.61513 0.70715,-2.74444 1.06073,-3.35956 0.35358,-0.61514 0.70715,-2.83395 1.06073,-3.44908 0.35357,-0.61512 0.70715,-2.90974 1.06073,-3.52486 0.35357,-0.61514 0.70715,-2.97155 1.06072,-3.58667 0.35358,-0.61513 0.70716,-3.01908 1.06073,-3.63421 0.35358,-0.61513 0.70715,-3.05219 1.06073,-3.66732 0.35358,-0.61512 0.70715,-3.07073 1.06073,-3.68585 0.35357,-0.61513 0.70715,-3.07464 1.06072,-3.68978 0.35358,-0.61512 0.70716,-3.06385 1.06073,-3.67897 0.35358,-0.61514 0.70715,-3.03848 1.06073,-3.6536 0.35358,-0.61513 0.70715,-2.99858 1.06073,-3.61371 0.35357,-0.61512 0.70715,-2.94432 1.06073,-3.55944 0.35357,-0.61513 0.70715,-2.87593 1.06072,-3.49105 0.35358,-0.61513 0.70716,-2.79366 1.06073,-3.40879 0.35358,-0.61512 0.70715,-2.69784 1.06073,-3.31297 0.35358,-0.61513 0.70715,-2.58887 1.06073,-3.204 0.35357,-0.61512 0.70715,-2.46717 1.06073,-3.0823 0.35357,-0.61512 0.70715,-2.33322 1.06072,-2.94835 0.35358,-0.61512 0.70715,-2.18756 1.06073,-2.80269 0.35358,-0.61512 0.70715,-2.03076 1.06073,-2.64589 0.35357,-0.61513 0.70715,-1.86345 1.06073,-2.47859 0.35357,-0.61512 0.70715,-1.6863 1.06072,-2.30142 0.35358,-0.61513 0.70716,-1.50001 1.06073,-2.11513 0.35358,-0.61513 0.70715,-1.30531 1.06073,-1.92043 0.35358,-0.61513 0.70715,-1.10297 1.06073,-1.7181 0.35357,-0.61512 0.70715,-0.8938 1.06073,-1.50893 0.35357,-0.61513 0.70715,-0.67866 1.06072,-1.29378 0.35358,-0.61513 0.70716,-0.45837 1.06073,-1.07349 0.35358,-0.61513 0.70715,-0.23381 1.06073,-0.84894 0.35358,-0.61512 0.70715,-0.006 1.06073,-0.621 0.35357,-0.61512 0.70715,0.22453 1.06072,-0.3906 0.35358,-0.61512 0.70716,0.45648 1.06073,-0.15865 0.35358,-0.61513 0.70715,0.68906 1.06073,0.0739 0.35358,-0.61513 0.70715,0.92135 1.06073,0.30622 0.35357,-0.61513 0.70715,1.15241 1.06073,0.53728 0.35357,-0.61512 0.70715,1.38135 1.06072,0.76623 0.35358,-0.61513 0.70716,1.60724 1.06073,0.99211 0.35358,-0.61513 0.70715,1.82919 1.06073,1.21406 0.35358,-0.61512 0.70715,2.04632 1.06073,1.4312 0.35357,-0.61514 0.70715,2.25775 1.06073,1.64263 0.35357,-0.61514 0.70715,2.46266 1.06072,1.84754 0.35358,-0.61513 0.70715,2.66025 1.06073,2.04512 0.35358,-0.61513 0.70715,2.84969 1.06073,2.23456 0.35357,-0.61512 0.70715,3.03027 1.06073,2.41514 0.35357,-0.61513 0.70715,3.20124 1.06072,2.58612 0.35358,-0.61513 0.70716,3.36194 1.06073,2.74681 0.35358,-0.61513 0.70715,3.51173 1.06073,2.8966 0.35358,-0.61512 0.70715,3.65001 1.06073,3.03488 0.35357,-0.61512 0.70715,3.77624 1.06073,3.16111 0.35357,-0.61513 0.70715,3.8899 1.06072,3.27477 0.35358,-0.61513 0.70716,3.99055 1.06073,3.37542 0.35358,-0.61513 0.70715,4.07779 1.06073,3.46266 0.35358,-0.61512 0.70715,4.15128 1.06073,3.53615 0.35357,-0.61512 0.70715,4.21071 1.06072,3.59559 0.35358,-0.61513 0.70716,4.25586 1.06073,3.64073 0.35358,-0.61513 0.70715,4.28655 1.06073,3.67142 0.35358,-0.61512 0.70715,4.30266 1.06073,3.68753 0.35357,-0.61513 0.70715,4.30412 1.06073,3.68899 0.35357,-0.61513 0.70715,4.29089 1.06072,3.67576 0.35358,-0.61512 0.70716,4.26309 1.06073,3.64796 0.35358,-0.61513 0.70715,4.22078 1.06073,3.60565 0.35358,-0.61513 0.70715,4.16415 1.06073,3.54902 0.35357,-0.61513 0.70715,4.09342 1.06073,3.47829 0.35357,-0.61512 0.70715,4.00888 1.06072,3.39375 0.35358,-0.61513 0.70715,3.91084 1.06073,3.29571 0.35358,-0.61513 0.70715,3.79972 1.06073,3.18459 0.35357,-0.61513 0.70715,3.67594 1.06073,3.06081 0.35357,-0.61513 0.70715,3.54 1.06072,2.92487 0.35358,-0.61513 0.70716,3.39244 1.06073,2.77732 0.35358,-0.61513 0.70715,3.23384 1.06073,2.61872 0.35358,-0.61513 0.70715,3.06485 1.06073,2.44972 0.35357,-0.61513 0.70715,2.88613 1.06073,2.27099 0.35357,-0.61512 0.70715,2.69838 1.06072,2.08325 0.35358,-0.61513 0.70716,2.50234 1.06073,1.88721 0.35358,-0.61512 0.70715,2.29882 1.06073,1.68369 0.35358,-0.61513 0.70715,2.0886 1.06073,1.47347 0.35357,-0.61512 0.70715,1.87253 1.06072,1.2574 0.35358,-0.61513 0.70716,1.65147 1.06073,1.03634 0.35358,-0.61513 0.70715,1.42628 1.06073,0.81115 0.35358,-0.61513 0.70715,1.19787 1.06073,0.58275 0.35357,-0.61513 0.70715,0.96715 1.06073,0.35203 0.35357,-0.61513 0.70715,0.73503 1.06072,0.1199 0.35358,-0.61513 0.70716,0.50244 1.06073,-0.11269 0.35358,-0.61513 0.70715,0.27029 1.06073,-0.34483 0.35358,-0.61513 0.70715,0.0395 1.06073,-0.57562 0.35357,-0.61513 0.70715,-0.18898 1.06073,-0.80411 0.35357,-0.61513 0.70715,-0.41427 1.06072,-1.0294 0.35358,-0.61513 0.70715,-0.63548 1.06073,-1.25061 0.35358,-0.61513 0.70715,-0.85172 1.06073,-1.46685 0.35357,-0.61513 0.70715,-1.06213 1.06073,-1.67725 0.35357,-0.61514 0.70715,-1.26588 1.06072,-1.88101 0.35358,-0.61513 0.70716,-1.46215 1.06073,-2.07728 0.35358,-0.61513 0.70715,-1.65017 1.06073,-2.2653 0.35358,-0.61513 0.70715,-1.82919 1.06073,-2.44432 0.35357,-0.61513 0.70715,-1.9985 1.06073,-2.61363 0.35357,-0.61513 0.70715,-2.15743 1.06072,-2.77255 0.35358,-0.61513 0.70716,-2.30534 1.06073,-2.92046 0.35358,-0.61513 0.70715,-2.44165 1.06073,-3.05677 0.35358,-0.61514 0.70715,-2.56581 1.06073,-3.18094 0.35357,-0.61513 0.70715,-2.67733 1.06072,-3.29246 0.35358,-0.61513 0.70716,-2.77577 1.06073,-3.3909 0.35358,-0.61513 0.70715,-2.86075 1.06073,-3.47587 0.35358,-0.61514 0.70715,-2.93191 1.06073,-3.54704 0.35357,-0.61513 0.70715,-2.98898 1.06073,-3.60411 0.35357,-0.61513 0.70715,-3.03173 1.06072,-3.64686 0.35358,-0.61513 0.70716,-3.05999 1.06073,-3.67512 0.35358,-0.61513 0.70715,-3.07366 1.06073,-3.6888 0.35358,-0.61513 0.70715,-3.07266 1.06073,-3.68779 0.35357,-0.61513 0.70715,-3.05701 1.06073,-3.67214 0.35357,-0.61513 0.70715,-3.02678 1.06072,-3.64191 0.35358,-0.61513 0.70715,-2.98208 1.06073,-3.5972 0.35358,-0.61513 0.70715,-2.92308 1.06073,-3.53821 0.35357,-0.61512 0.70715,-2.85002 1.06073,-3.46515 0.35357,-0.61513 0.70715,-2.76321 1.06072,-3.37833 0.35358,-0.61513 0.70716,-2.66297 1.06073,-3.27809 0.35358,-0.61513 0.70715,-2.5497 1.06073,-3.16483 0.35358,-0.61512 0.70715,-2.42386 1.06073,-3.03898 0.35357,-0.61513 0.70715,-2.28594 1.06073,-2.90108 0.35357,-0.61512 0.70715,-2.1365 1.06072,-2.75162 0.35358,-0.61513 0.70716,-1.97613 1.06073,-2.59126 0.35358,-0.61513 0.70715,-1.80547 1.06073,-2.42059 0.35358,-0.61513 0.70715,-1.62519 1.06073,-2.24031 0.35357,-0.61514 0.70715,-1.436 1.06072,-2.05113 0.35358,-0.61513 0.70716,-1.23867 1.06073,-1.85379 0.35358,-0.61513 0.70715,-1.03397 1.06073,-1.6491 0.35358,-0.61512 0.70715,-0.82271 1.06073,-1.43784 0.35357,-0.61513 0.70715,-0.60575 1.06073,-1.22088 0.35357,-0.61513 0.70715,-0.38394 1.06072,-0.99907 0.35358,-0.61512 0.70716,-0.15815 1.06073,-0.77328 0.35358,-0.61513 0.70715,0.0707 1.06073,-0.54443 0.35358,-0.61513 0.70715,0.30172 1.06073,-0.31341 0.35357,-0.61513 0.70715,0.53398 1.06073,-0.0811 0.35357,-0.61513 0.70715,0.76656 1.06072,0.15144 0.35358,-0.61513 0.70715,0.99854 1.06073,0.38342 0.35358,-0.61513 0.70715,1.229 1.06073,0.61388 0.35357,-0.61513 0.70715,1.45703 1.06073,0.8419 0.35357,-0.61513 0.70715,1.6817 1.06072,1.06658 0.35358,-0.61513 0.70716,1.90214 1.06073,1.28701 0.35358,-0.61512 0.70715,2.11748 1.06073,1.50235 0.35358,-0.61513 0.70715,2.32682 1.06073,1.7117 0.35357,-0.61513 0.70715,2.52939 1.06073,1.91426 0.35357,-0.61513 0.70715,2.72433 1.06072,2.10921 0.35358,-0.61513 0.70716,2.91091 1.06073,2.29577 0.35358,-0.61512 0.70715,3.08836 1.06073,2.47323 0.35358,-0.61512 0.70715,3.25599 1.06073,2.64086 0.35357,-0.61512 0.70715,3.41311 1.06072,2.79799 0.35358,-0.61513 0.70716,3.55913 1.06073,2.944 0.35358,-0.61513 0.70715,3.69345 1.06073,3.07832 0.35358,-0.61512 0.70715,3.81554 1.06073,3.20041 0.35357,-0.61512 0.70715,3.92492 1.06073,3.30979 0.35357,-0.61513 0.70715,4.02114 1.06072,3.40601 0.35358,-0.61513 0.70716,4.10383 1.06073,3.4887 0.35358,-0.61512 0.70715,4.17266 1.06073,3.55754 0.35358,-0.61513 0.70715,4.22736 1.06073,3.61223 0.35357,-0.61513 0.70715,4.26771 1.06073,3.65258 0.35357,-0.61513 0.70715,4.29354 1.06072,3.67841 0.35358,-0.61512 0.70715,4.30478 1.06073,3.68966 0.35358,-0.61514 0.70715,4.30132 1.06073,3.68619 0.35357,-0.61512 0.70715,4.28324 1.06073,3.66812 0.35357,-0.61513 0.70715,4.25058 1.06072,3.63545 0.35358,-0.61512 0.70716,4.20349 1.06073,3.58836 0.35358,-0.61513 0.70715,4.14212 1.06073,3.527"
       style="fill:none;stroke:#ff0000;stroke-width:1.2993294;stroke-linecap:round;stroke-linejoin:round;stroke-miterlimit:4;stroke-opacity:1;stroke-dasharray:none;stroke-dashoffset:0"
       inkscape:connector-curvature="0"
       sodipodi:nodetypes="cssscssssssscsscsssscsscssssssssssssssssssssscsssssssssscsscssscsssssscssssscssscccssssssssssssssssscsscsssssssccsssssscscscsscscssssssscssscsssccssssscssscssssssssssscssssssssccsssssssssscssscssssssssssscssscssssscsssssssscssscscsssssssccsccsssssssscsssssscscssssssssssssssscsscscsssssscssscsssscscc" />
  </g>
</svg>
