<?xml version="1.0" encoding="UTF-8" standalone="no"?>
<!-- Created with Inkscape (http://www.inkscape.org/) -->

<svg
   xmlns:dc="http://purl.org/dc/elements/1.1/"
   xmlns:cc="http://creativecommons.org/ns#"
   xmlns:rdf="http://www.w3.org/1999/02/22-rdf-syntax-ns#"
   xmlns:svg="http://www.w3.org/2000/svg"
   xmlns="http://www.w3.org/2000/svg"
   xmlns:sodipodi="http://sodipodi.sourceforge.net/DTD/sodipodi-0.dtd"
   xmlns:inkscape="http://www.inkscape.org/namespaces/inkscape"
   width="350.25681"
   height="240.15625"
   id="svg2"
   version="1.1"
   inkscape:version="0.48.5 r10040"
   sodipodi:docname="sinusoid.svg"
   inkscape:export-filename="/home/nicola/Documents/dotdotdot/progetto_formazione_interna/reveal/images/sinusoid.png"
   inkscape:export-xdpi="263.07874"
   inkscape:export-ydpi="263.07874">
  <sodipodi:namedview
     id="base"
     pagecolor="#ffffff"
     bordercolor="#666666"
     borderopacity="1.0"
     inkscape:pageopacity="1"
     inkscape:pageshadow="2"
     inkscape:zoom="1.28"
     inkscape:cx="38.573821"
     inkscape:cy="75.450442"
     inkscape:document-units="px"
     inkscape:current-layer="svg2"
     showgrid="false"
     inkscape:window-width="1440"
     inkscape:window-height="834"
     inkscape:window-x="0"
     inkscape:window-y="27"
     inkscape:window-maximized="1"
     showguides="true"
     inkscape:guide-bbox="true"
     fit-margin-top="0"
     fit-margin-left="0"
     fit-margin-right="0"
     fit-margin-bottom="0"
     inkscape:snap-to-guides="true"
     inkscape:snap-grids="true">
    <sodipodi:guide
       orientation="0,1"
       position="23.406798,140.30097"
       id="guide4065" />
    <sodipodi:guide
       orientation="0,1"
       position="214.04623,37.940764"
       id="guide4331" />
    <sodipodi:guide
       orientation="0,1"
       position="278.12778,273.27474"
       id="guide4333" />
    <sodipodi:guide
       orientation="1,0"
       position="-41.727552,20.263095"
       id="guide4357" />
    <sodipodi:guide
       orientation="0,1"
       position="101.37177,238.24375"
       id="guide5350" />
    <sodipodi:guide
       position="-359.35249,37.160263"
       orientation="0,707.69678"
       id="guide5352" />
    <sodipodi:guide
       position="348.34429,37.160263"
       orientation="-281.6647,0"
       id="guide5354" />
    <sodipodi:guide
       position="348.34429,318.82496"
       orientation="0,-707.69678"
       id="guide5356" />
    <sodipodi:guide
       position="-359.35249,318.82496"
       orientation="281.6647,0"
       id="guide5358" />
    <sodipodi:guide
       orientation="1,0"
       position="29.003808,26.11172"
       id="guide5364" />
    <sodipodi:guide
       id="guide6442"
       position="348.34429,0.70007046"
       orientation="0,1" />
  </sodipodi:namedview>
  <defs
     id="defs4">
    <marker
       inkscape:stockid="Arrow1Mend"
       orient="auto"
       refY="0"
       refX="0"
       id="Arrow1Mend"
       style="overflow:visible">
      <path
         inkscape:connector-curvature="0"
         id="path3789"
         d="M 0,0 5,-5 -12.5,0 5,5 0,0 z"
         style="fill-rule:evenodd;stroke:#000000;stroke-width:1pt"
         transform="matrix(-0.4,0,0,-0.4,-4,0)" />
    </marker>
    <marker
       inkscape:stockid="Arrow1Mstart"
       orient="auto"
       refY="0"
       refX="0"
       id="Arrow1Mstart"
       style="overflow:visible">
      <path
         inkscape:connector-curvature="0"
         id="path3786"
         d="M 0,0 5,-5 -12.5,0 5,5 0,0 z"
         style="fill-rule:evenodd;stroke:#000000;stroke-width:1pt"
         transform="matrix(0.4,0,0,0.4,4,0)" />
    </marker>
    <marker
       inkscape:stockid="Arrow1Lstart"
       orient="auto"
       refY="0"
       refX="0"
       id="Arrow1Lstart"
       style="overflow:visible">
      <path
         inkscape:connector-curvature="0"
         id="path3780"
         d="M 0,0 5,-5 -12.5,0 5,5 0,0 z"
         style="fill-rule:evenodd;stroke:#000000;stroke-width:1pt"
         transform="matrix(0.8,0,0,0.8,10,0)" />
    </marker>
    <marker
       inkscape:stockid="Arrow1Mend"
       orient="auto"
       refY="0"
       refX="0"
       id="Arrow1Mend-3"
       style="overflow:visible">
      <path
         inkscape:connector-curvature="0"
         id="path3789-6"
         d="M 0,0 5,-5 -12.5,0 5,5 0,0 z"
         style="fill-rule:evenodd;stroke:#000000;stroke-width:1pt"
         transform="matrix(-0.4,0,0,-0.4,-4,0)" />
    </marker>
    <marker
       inkscape:stockid="Arrow1Mstart"
       orient="auto"
       refY="0"
       refX="0"
       id="Arrow1Mstart-7"
       style="overflow:visible">
      <path
         inkscape:connector-curvature="0"
         id="path3786-5"
         d="M 0,0 5,-5 -12.5,0 5,5 0,0 z"
         style="fill-rule:evenodd;stroke:#000000;stroke-width:1pt"
         transform="matrix(0.4,0,0,0.4,4,0)" />
    </marker>
  </defs>
  <metadata
     id="metadata7">
    <rdf:RDF>
      <cc:Work
         rdf:about="">
        <dc:format>image/svg+xml</dc:format>
        <dc:type
           rdf:resource="http://purl.org/dc/dcmitype/StillImage" />
        <dc:title></dc:title>
      </cc:Work>
    </rdf:RDF>
  </metadata>
  <g
     inkscape:label="ascisse"
     id="ascisse"
     inkscape:groupmode="layer"
     style="display:inline"
     transform="translate(-41.62446,-3e-6)">
    <path
       id="path5366"
       d="m 70.628268,202.21548 319.340492,0.7805"
       style="fill:none;stroke:#000000;stroke-width:1px;stroke-linecap:butt;stroke-linejoin:miter;stroke-opacity:1;marker-start:none;marker-end:url(#Arrow1Mend)"
       inkscape:connector-curvature="0" />
    <path
       id="path6440"
       d="m 366.00593,225.07938 h 3.43483 c 0.7266,0 1.09357,0 1.09357,-0.73394 0,-0.40367 -0.36697,-0.40367 -1.02017,-0.40367 h -3.22199 c 1.31375,-5.19628 1.49723,-5.93021 1.49723,-6.14306 0,-0.62384 -0.43302,-0.99081 -1.04953,-0.99081 -0.11743,0 -1.1376,0.0367 -1.46787,1.32109 l -1.42384,5.81278 h -3.44217 c -0.73394,0 -1.10091,0 -1.10091,0.68991 0,0.4477 0.30091,0.4477 1.03485,0.4477 h 3.20731 c -2.6275,10.37788 -2.77428,10.99439 -2.77428,11.66227 0,1.97429 1.38714,3.36144 3.36143,3.36144 3.72841,0 5.81279,-5.33573 5.81279,-5.62931 0,-0.36697 -0.28624,-0.36697 -0.43302,-0.36697 -0.33761,0 -0.36697,0.11009 -0.55046,0.51376 -1.57062,3.79446 -3.50822,4.67519 -4.74858,4.67519 -0.77063,0 -1.1376,-0.47706 -1.1376,-1.68072 0,-0.87339 0.0661,-1.13761 0.22018,-1.75411 z"
       inkscape:connector-curvature="0"
       style="font-style:normal;font-variant:normal;font-weight:normal;font-stretch:normal;letter-spacing:normal;word-spacing:normal;text-anchor:start;fill:#000000;stroke:#000000;stroke-width:0;stroke-linecap:butt;stroke-linejoin:miter;stroke-miterlimit:10.43299961;stroke-opacity:1;stroke-dasharray:none;stroke-dashoffset:0" />
  </g>
  <g
     id="ordinate"
     inkscape:groupmode="layer"
     inkscape:label="ordinate"
     transform="translate(-378.15571,-90.006898)"
     style="display:inline">
    <g
       id="g6436"
       transform="matrix(1.8240005,0,0,1.8240005,501.11538,-340.29756)">
      <g
         word-spacing="normal"
         letter-spacing="normal"
         font-size-adjust="none"
         font-stretch="normal"
         font-weight="normal"
         font-variant="normal"
         font-style="normal"
         stroke-miterlimit="10.433"
         xml:space="preserve"
         transform="matrix(0.40237814,0,0,-0.40237814,-70.416175,530.77259)"
         id="g6438"
         style="font-style:normal;font-variant:normal;font-weight:normal;font-stretch:normal;letter-spacing:normal;word-spacing:normal;text-anchor:start;fill:none;stroke:#000000;stroke-linecap:butt;stroke-linejoin:miter;stroke-miterlimit:10.43299961;stroke-opacity:1;stroke-dasharray:none;stroke-dashoffset:0" />    </g>
    <path
       id="path3078"
       d="m 407.15952,91.919398 0,200.302982"
       style="fill:none;stroke:#000000;stroke-width:1px;stroke-linecap:butt;stroke-linejoin:miter;stroke-opacity:1;marker-start:url(#Arrow1Mstart);marker-end:none"
       inkscape:connector-curvature="0" />
    <g
       id="g5251"
       transform="translate(281.25102,-36.113932)">
      <g
         word-spacing="normal"
         letter-spacing="normal"
         font-size-adjust="none"
         font-stretch="normal"
         font-weight="normal"
         font-variant="normal"
         font-style="normal"
         stroke-miterlimit="10.433"
         xml:space="preserve"
         transform="matrix(0.3430634,0,0,-0.3430634,-60.036095,293.91092)"
         id="content"
         style="font-style:normal;font-variant:normal;font-weight:normal;font-stretch:normal;letter-spacing:normal;word-spacing:normal;text-anchor:start;fill:none;stroke:#000000;stroke-linecap:butt;stroke-linejoin:miter;stroke-miterlimit:10.43299961;stroke-opacity:1;stroke-dasharray:none;stroke-dashoffset:0"><path
           id="path5254"
           d="m 470.61,421.95 0.21,1.28 3.39,13.56 c 0.43,1.74 0.54,1.89 2.68,1.89 h 4.79 c 4.14,0 6.78,-1.34 6.78,-4.78 0,-1.95 -1,-6.23 -2.94,-8.03 -2.5,-2.23 -5.48,-2.64 -7.69,-2.64 h -7.01 l -0.21,-1.28 h 8.47 c 7.08,0 14,5.17 14,10.75 0,3.84 -3.28,7.53 -9.81,7.53 h -16.14 c -0.95,0 -1.5,0 -1.5,-0.95 0,-0.6 0.45,-0.6 1.45,-0.6 0.64,0 1.55,-0.04 2.14,-0.09 0.8,-0.11 1.1,-0.25 1.1,-0.8 0,-0.2 -0.05,-0.36 -0.21,-0.95 l -6.67,-26.75 c -0.5,-1.95 -0.59,-2.34 -4.53,-2.34 -0.84,0 -1.39,0 -1.39,-0.96 0,-0.59 0.59,-0.59 0.73,-0.59 1.41,0 4.94,0.16 6.33,0.16 1.05,0 2.14,-0.07 3.19,-0.07 1.11,0 2.2,-0.09 3.25,-0.09 0.34,0 0.98,0 0.98,1 0,0.55 -0.43,0.55 -1.39,0.55 -1.84,0 -3.23,0 -3.23,0.89 0,0.29 0.09,0.54 0.14,0.84 z"
           inkscape:connector-curvature="0"
           style="fill:#000000;stroke-width:0" /><path
           id="path5256"
           d="m 513.1,425.03 -0.09,0.17 -0.09,0.17 -0.09,0.16 -0.09,0.16 -0.1,0.16 -0.1,0.16 -0.11,0.15 -0.11,0.14 -0.11,0.15 -0.12,0.13 -0.12,0.14 -0.12,0.13 -0.13,0.12 -0.13,0.12 -0.14,0.11 -0.14,0.11 -0.14,0.11 -0.15,0.09 -0.15,0.1 -0.15,0.08 -0.16,0.08 -0.17,0.08 -0.17,0.06 -0.17,0.07 -0.17,0.05 -0.18,0.05 -0.19,0.04 -0.19,0.03 -0.19,0.03 -0.2,0.02 -0.2,0.01 -0.21,0 0.05,-1.09 c 3.23,0 3.93,-4.08 3.93,-4.37 0,-0.32 -0.09,-0.61 -0.14,-0.86 l -2.5,-9.77 c -0.25,-0.89 -0.25,-0.98 -1,-1.84 -2.18,-2.74 -4.23,-3.53 -5.62,-3.53 -2.49,0 -3.19,2.73 -3.19,4.68 0,2.49 1.59,8.61 2.74,10.91 1.54,2.94 3.79,4.78 5.78,4.78 l -0.05,1.09 c -5.83,0 -12,-7.31 -12,-14.59 0,-4.69 2.73,-7.97 6.62,-7.97 0.99,0 3.49,0.21 6.47,3.74 0.41,-2.1 2.14,-3.74 4.54,-3.74 1.75,0 2.88,1.14 3.68,2.74 0.85,1.79 1.5,4.84 1.5,4.93 0,0.5 -0.45,0.5 -0.59,0.5 -0.5,0 -0.55,-0.2 -0.71,-0.9 -0.84,-3.24 -1.75,-6.17 -3.78,-6.17 -1.34,0 -1.5,1.29 -1.5,2.29 0,1.1 0.1,1.49 0.65,3.69 0.56,2.09 0.65,2.59 1.1,4.48 l 1.78,6.97 c 0.37,1.39 0.37,1.5 0.37,1.69 0,0.86 -0.62,1.36 -1.46,1.36 -1.19,0 -1.94,-1.11 -2.09,-2.2 z"
           inkscape:connector-curvature="0"
           style="fill:#000000;stroke-width:0" /></g>    </g>
  </g>
  <g
     inkscape:groupmode="layer"
     id="rest"
     inkscape:label="rest"
     style="display:inline"
     transform="translate(-41.62446,-3e-6)">
    <path
       inkscape:connector-curvature="0"
       id="path4353"
       d="m 71.52022,99.855279 318.44853,0"
       style="fill:none;stroke:#787878;stroke-width:1;stroke-linecap:butt;stroke-linejoin:miter;stroke-miterlimit:4;stroke-opacity:1;stroke-dasharray:3, 1;stroke-dashoffset:0"
       sodipodi:nodetypes="cc" />
  </g>
  <g
     inkscape:groupmode="layer"
     id="sinusoid"
     inkscape:label="sinusoids"
     style="display:inline"
     transform="translate(-41.62446,-3e-6)">
    <path
       id="path4154"
       title="sin(2*x+9.75477) +1"
       d="m 70.805963,117.83685 c 0.35358,-0.61513 0.70715,4.06675 1.06073,3.45163 0.35357,-0.61513 0.70715,3.97767 1.06073,3.36255 0.35357,-0.61513 0.70715,3.87523 1.06072,3.2601 0.35358,-0.61512 0.70716,3.75984 1.06073,3.14471 0.35358,-0.61513 0.70715,3.63195 1.06073,3.01682 0.35358,-0.61512 0.70715,3.49208 1.06073,2.87696 0.35357,-0.61513 0.70715,3.34077 1.06072,2.72564 0.35358,-0.61513 0.70716,3.17864 1.06073,2.56351 0.35358,-0.61512 0.70715,3.00632 1.06073,2.3912 0.35358,-0.61513 0.70715,2.8245 1.06073,2.20938 0.35357,-0.61513 0.70715,2.63391 1.06073,2.01878 0.35357,-0.61513 0.70715,2.43529 1.06072,1.82016 0.35358,-0.61513 0.70716,2.22945 1.06073,1.61432 0.35358,-0.61512 0.70715,2.01718 1.06073,1.40206 0.35358,-0.61513 0.70715,1.79935 1.06073,1.18422 0.35357,-0.61513 0.70715,1.57682 1.06073,0.96169 0.35357,-0.61513 0.70715,1.35046 1.06072,0.73533 0.35358,-0.61513 0.70715,1.12118 1.06073,0.50605 0.35358,-0.61513 0.70715,0.8899 1.06073,0.27476 0.35357,-0.61512 0.70715,0.65752 1.06073,0.0424 0.35357,-0.61513 0.70715,0.42496 1.06072,-0.19017 0.35358,-0.61513 0.70716,0.19316 1.06073,-0.42196 0.35358,-0.61513 0.70715,-0.037 1.06073,-0.65208 0.35358,-0.61513 0.70715,-0.26448 1.060726,-0.87961 0.35357,-0.61512 0.70715,-0.48851 1.06073,-1.10363 0.35357,-0.61513 0.70715,-0.70816 1.06072,-1.32329 0.35358,-0.61512 0.70716,-0.92254 1.06073,-1.53767 0.353583,-0.61513 0.707151,-1.13083 1.060731,-1.74595 0.35358,-0.61514 0.70715,-1.33218 1.06073,-1.9473 0.35357,-0.61513 0.70715,-1.52579 1.06072,-2.14091 0.35358,-0.61513 0.70716,-1.71088 1.06073,-2.32601 0.35358,-0.61513 0.70715,-1.88674 1.06073,-2.50187 0.35358,-0.61512 0.70715,-2.05266 1.06073,-2.66779 0.35357,-0.61513 0.70715,-2.20798 1.06073,-2.82311 0.35357,-0.61513 0.70715,-2.35209 1.06072,-2.96722 0.35358,-0.61512 0.70716,-2.4844 1.06073,-3.09953 0.35358,-0.61512 0.70715,-2.60441 1.06073,-3.21954 0.35358,-0.61512 0.70715,-2.71162 1.06073,-3.32674 0.35357,-0.61513 0.70715,-2.80562 1.06073,-3.42074 0.35357,-0.61513 0.70715,-2.88602 1.06072,-3.50115 0.35358,-0.61513 0.70715,-2.95251 1.06073,-3.56764 0.35358,-0.61512 0.70715,-3.00483 1.06073,-3.61996 0.35357,-0.61512 0.70715,-3.04277 1.06073,-3.65789 0.35357,-0.61513 0.70715,-3.06618 1.06072,-3.6813 0.35358,-0.61513 0.70716,-3.074976 1.06073,-3.690106 0.35358,-0.61512 0.70715,-3.06907 1.06073,-3.68419 0.35358,-0.61513 0.70715,-3.04856 1.06073,-3.66368 0.35357,-0.61513 0.70715,-3.01348 1.06073,-3.62861 0.35357,-0.61512 0.70715,-2.96399 1.06072,-3.57911 0.35358,-0.61513 0.70716,-2.90028 1.06073,-3.5154 0.35358,-0.61513 0.70715,-2.8226 1.06073,-3.43773 0.35358,-0.61513 0.70715,-2.73127 1.06073,-3.34639 0.35357,-0.61513 0.70715,-2.62664 1.06072,-3.24176 0.35358,-0.61513 0.70716,-2.50913 1.06073,-3.12426 0.35358,-0.61512 0.70715,-2.37919 1.06073,-2.99433 0.35358,-0.61512 0.70715,-2.23738 1.06073,-2.8525 0.35357,-0.61513 0.70715,-2.08424 1.06073,-2.69936 0.35357,-0.61513 0.70715,-1.920358 1.06072,-2.535484 0.35358,-0.615126 0.70716,-1.746404 1.06073,-2.361535 0.35358,-0.615126 0.70715,-1.563072 1.06073,-2.178197 0.35358,-0.615132 0.70715,-1.371093 1.06073,-1.986219 0.35357,-0.615125 0.70715,-1.17121 1.06073,-1.786336 0.35357,-0.615126 0.70715,-0.964235 1.06072,-1.579366 0.35358,-0.615126 0.70715,-0.750983 1.06073,-1.366112 0.35358,-0.615127 0.70715,-0.532312 1.06073,-1.147439 0.35357,-0.615127 0.70715,-0.309076 1.06073,-0.924203 0.35357,-0.615127 0.70715,-0.08217 1.06072,-0.697296 0.35358,-0.615127 0.70716,0.147508 1.06073,-0.467619 0.35358,-0.615127 0.70715,0.379043 1.06073,-0.236084 0.35358,-0.615128 0.70715,0.611517 1.06073,-0.0036 0.35357,-0.615128 0.70715,0.844003 1.06073,0.228876 0.35357,-0.615127 0.70715,1.075582 1.06072,0.460455 0.35358,-0.615127 0.70716,1.305332 1.06073,0.690205 0.35358,-0.615127 0.70715,1.532337 1.06073,0.91721 0.35358,-0.615127 0.70715,1.755697 1.06073,1.140573 0.35357,-0.615127 0.70715,1.974533 1.06072,1.359401 0.35358,-0.615126 0.70716,2.187963 1.06073,1.572837 0.35358,-0.615125 0.70715,2.395141 1.06073,1.780015 0.35358,-0.615126 0.70715,2.595252 1.06073,1.980126 0.35357,-0.615126 0.70715,2.787496 1.06073,2.17237 0.35357,-0.615132 0.70715,2.971106 1.06072,2.355974 0.35358,-0.615126 0.70716,3.145368 1.06073,2.530238 0.35358,-0.61513 0.70715,3.30955 1.06073,2.69443 0.35358,-0.61513 0.70715,3.46305 1.06073,2.84792 0.35357,-0.61513 0.70715,3.60523 1.06073,2.9901 0.35357,-0.61512 0.70715,3.73553 1.06072,3.12041 0.35358,-0.61513 0.70715,3.85343 1.06073,3.2383 0.35358,-0.61513 0.70715,3.95847 1.06073,3.34334 0.35357,-0.61512 0.70715,4.05022 1.06073,3.4351 0.35357,-0.61513 0.70715,4.12833 1.06072,3.5132 0.35358,-0.61513 0.70716,4.19248 1.06073,3.57735 0.35358,-0.61512 0.70715,4.24241 1.06073,3.62729 0.35358,-0.61513 0.70715,4.27793 1.06073,3.6628 0.35357,-0.61512 0.70715,4.29891 1.06073,3.68379 0.35357,-0.61513 0.70715,4.305256 1.06072,3.690136 0.35358,-0.61514 0.70716,4.29691 1.06073,3.68179 0.35358,-0.61513 0.70715,4.27396 1.06073,3.65884 0.35358,-0.61513 0.70715,4.23648 1.06073,3.62135 0.35357,-0.61512 0.70715,4.1846 1.06072,3.56948 0.35358,-0.61513 0.70716,4.11855 1.06073,3.50342 0.35358,-0.61513 0.70715,4.03857 1.06073,3.42344 0.35358,-0.61512 0.70715,3.945 1.06073,3.32986 0.35357,-0.61512 0.70715,3.83819 1.06073,3.22307 0.35357,-0.61513 0.70715,3.71857 1.06072,3.10344 0.35358,-0.61513 0.70716,3.58663 1.06073,2.97151 0.35358,-0.61513 0.70715,3.44288 1.06073,2.82775 0.35358,-0.61513 0.70715,3.2879 1.06073,2.67278 0.35357,-0.61513 0.70715,3.12229 1.06073,2.50717 0.35357,-0.61513 0.70715,2.94673 1.06072,2.33161 0.35358,-0.61513 0.70715,2.76191 1.06073,2.14678 0.35358,-0.61513 0.70715,2.56856 1.06073,1.95343 0.35357,-0.61513 0.70715,2.36744 1.06073,1.75232 0.35357,-0.61514 0.70715,2.15936 1.06072,1.54423 0.35358,-0.61513 0.70716,1.94515 1.06073,1.33002 0.35358,-0.61512 0.70715,1.72565 1.06073,1.11053 0.35358,-0.61513 0.70715,1.50174 1.06073,0.88661 0.35357,-0.61512 0.70715,1.27431 1.06073,0.65919 0.35357,-0.61513 0.70715,1.04426 1.06072,0.42913 0.35358,-0.61512 0.70716,0.81251 1.06073,0.19738 0.35358,-0.61513 0.70715,0.57997 1.06073,-0.0351 0.35358,-0.61513 0.70715,0.34757 1.06073,-0.26756 0.35357,-0.61513 0.70715,0.11623 1.06072,-0.4989 0.35358,-0.61513 0.70716,-0.11312 1.06073,-0.72825 0.35358,-0.61513 0.70715,-0.33959 1.06073,-0.95472 0.35358,-0.61513 0.70715,-0.56225 1.06073,-1.17738 0.35357,-0.61513 0.70715,-0.78025 1.06073,-1.39537 0.35357,-0.61513 0.70715,-0.9927 1.06072,-1.60782 0.35358,-0.61514 0.70716,-1.19876 1.06073,-1.81389 0.35358,-0.61512 0.70715,-1.3976 1.06073,-2.01273 0.35358,-0.61513 0.70715,-1.58846 1.06073,-2.20359 0.35357,-0.61512 0.70715,-1.77057 1.06073,-2.38569 0.35357,-0.61513 0.70715,-1.94318 1.06072,-2.55831 0.35358,-0.61513 0.70715,-2.10565 1.06073,-2.72078 0.35358,-0.61512 0.70715,-2.25729 1.06073,-2.87242 0.35357,-0.61512 0.70715,-2.39753 1.06073,-3.01266 0.35357,-0.61512 0.70715,-2.52579 1.06072,-3.14093 0.35358,-0.61512 0.70716,-2.64159 1.06073,-3.25671 0.35358,-0.61513 0.70715,-2.74444 1.06073,-3.35956 0.35358,-0.61514 0.70715,-2.83395 1.06073,-3.44908 0.35357,-0.61512 0.70715,-2.90974 1.06073,-3.52486 0.35357,-0.61514 0.70715,-2.97155 1.06072,-3.58667 0.35358,-0.61513 0.70716,-3.01908 1.06073,-3.63421 0.35358,-0.61513 0.70715,-3.05219 1.06073,-3.66732 0.35358,-0.61512 0.70715,-3.07073 1.06073,-3.68585 0.35357,-0.615134 0.70715,-3.074636 1.06072,-3.689776 0.35358,-0.61512 0.70716,-3.06385 1.06073,-3.67897 0.35358,-0.61514 0.70715,-3.03848 1.06073,-3.6536 0.35358,-0.61513 0.70715,-2.99858 1.06073,-3.61371 0.35357,-0.61512 0.70715,-2.94432 1.06073,-3.55944 0.35357,-0.61513 0.70715,-2.87593 1.06072,-3.49105 0.35358,-0.61513 0.70716,-2.79366 1.06073,-3.40879 0.35358,-0.61512 0.70715,-2.69784 1.06073,-3.31297 0.35358,-0.61513 0.70715,-2.58887 1.06073,-3.204 0.35357,-0.61512 0.70715,-2.46717 1.06073,-3.0823 0.35357,-0.61512 0.70715,-2.33322 1.06072,-2.94835 0.35358,-0.61512 0.70715,-2.18756 1.06073,-2.80269 0.35358,-0.61512 0.70715,-2.03076 1.06073,-2.645894 0.35357,-0.615126 0.70715,-1.863454 1.06073,-2.478586 0.35357,-0.615126 0.70715,-1.686301 1.06072,-2.301427 0.35358,-0.615126 0.70716,-1.500002 1.06073,-2.115128 0.35358,-0.615132 0.70715,-1.305305 1.06073,-1.920431 0.35358,-0.615125 0.70715,-1.102969 1.06073,-1.718095 0.35357,-0.615126 0.70715,-0.893805 1.06073,-1.508937 0.35357,-0.615124 0.70715,-0.678653 1.06072,-1.29378 0.35358,-0.615127 0.70716,-0.458363 1.06073,-1.07349 0.35358,-0.615127 0.70715,-0.233804 1.06073,-0.848931 0.35358,-0.615127 0.70715,-0.0059 1.06073,-0.621 0.35357,-0.615127 0.70715,0.224525 1.06072,-0.390602 0.35358,-0.615127 0.70716,0.456476 1.06073,-0.158651 0.35358,-0.615127 0.70715,0.689056 1.06073,0.07393 0.35358,-0.615127 0.70715,0.921344 1.06073,0.306217 0.35357,-0.615127 0.70715,1.152414 1.06073,0.537286 0.35357,-0.615127 0.70715,1.38135 1.06072,0.766222 0.35358,-0.615127 0.70716,1.607242 1.06073,0.992115 0.35358,-0.615128 0.70715,1.829192 1.06073,1.214063 0.35358,-0.615127 0.70715,2.046317 1.06073,1.431191 0.35357,-0.615131 0.70715,2.257756 1.06073,1.64263 0.35357,-0.615132 0.70715,2.462668 1.06072,1.847542 0.35358,-0.615126 0.70715,2.660249 1.06073,2.045118 0.35358,-0.615126 0.70715,2.849698 1.06073,2.234566 0.35357,-0.615126 0.70715,3.030271 1.06073,2.415139 0.35357,-0.615126 0.70715,3.201243 1.06072,2.586123 0.35358,-0.61513 0.70716,3.36194 1.06073,2.74681 0.35358,-0.61513 0.70715,3.51173 1.06073,2.8966 0.35358,-0.61512 0.70715,3.65001 1.06073,3.03488 0.35357,-0.61512 0.70715,3.77624 1.06073,3.16111 0.35357,-0.61513 0.70715,3.8899 1.06072,3.27477 0.35358,-0.61513 0.70716,3.99055 1.06073,3.37542 0.35358,-0.61513 0.70715,4.07779 1.06073,3.46266 0.35358,-0.61512 0.70715,4.15128 1.06073,3.53615 0.35357,-0.61512 0.70715,4.21071 1.06072,3.59559 0.35358,-0.61513 0.70716,4.25586 1.06073,3.64073 0.35358,-0.61513 0.70715,4.28655 1.06073,3.67142 0.35358,-0.61512 0.70715,4.302658 1.06073,3.68753 0.35357,-0.61513 0.70715,4.304116 1.06073,3.688986 0.35357,-0.61513 0.70715,4.29089 1.06072,3.67576 0.35358,-0.61512 0.70716,4.26309 1.06073,3.64796 0.35358,-0.61513 0.70715,4.22078 1.06073,3.60565 0.35358,-0.61513 0.70715,4.16415 1.06073,3.54902 0.35357,-0.61513 0.70715,4.09342 1.06073,3.47829 0.35357,-0.61512 0.70715,4.00888 1.06072,3.39375 0.35358,-0.61513 0.70715,3.91084 1.06073,3.29571 0.35358,-0.61513 0.70715,3.79972 1.06073,3.18459 0.35357,-0.61513 0.70715,3.67594 1.06073,3.06081 0.35357,-0.61513 0.70715,3.54 1.06072,2.92487 0.35358,-0.61513 0.70716,3.39244 1.06073,2.77732 0.35358,-0.61513 0.70715,3.23384 1.06073,2.61872 0.35358,-0.61513 0.70715,3.06485 1.06073,2.44972 0.35357,-0.61513 0.70715,2.88613 1.06073,2.27099 0.35357,-0.61512 0.70715,2.69838 1.06072,2.08325 0.35358,-0.61513 0.70716,2.50234 1.06073,1.88721 0.35358,-0.61512 0.70715,2.29882 1.06073,1.68369 0.35358,-0.61513 0.70715,2.0886 1.06073,1.47347 0.35357,-0.61512 0.70715,1.87253 1.06072,1.2574 0.35358,-0.61513 0.70716,1.65147 1.06073,1.03634 0.35358,-0.61513 0.70715,1.42628 1.06073,0.81115 0.35358,-0.61513 0.70715,1.19787 1.06073,0.58275 0.35357,-0.61513 0.70715,0.96715 1.06073,0.35203 0.35357,-0.61513 0.70715,0.73503 1.06072,0.1199 0.35358,-0.61513 0.70716,0.50244 1.06073,-0.11269 0.35358,-0.61513 0.70715,0.27029 1.06073,-0.34483 0.35358,-0.61513 0.70715,0.0395 1.06073,-0.57562 0.35357,-0.61513 0.70715,-0.18898 1.06073,-0.80411 0.35357,-0.61513 0.70715,-0.41427 1.06072,-1.0294 0.35358,-0.61513 0.70715,-0.63548 1.06073,-1.25061 0.35358,-0.61513 0.70715,-0.85172 1.06073,-1.46685 0.35357,-0.61513 0.70715,-1.06213 1.06073,-1.67725 0.35357,-0.61514 0.70715,-1.26588 1.06072,-1.88101 0.35358,-0.61513 0.70716,-1.46215 1.06073,-2.07728 0.35358,-0.61513 0.70715,-1.65017 1.06073,-2.2653 0.35358,-0.61513 0.70715,-1.82919 1.06073,-2.44432 0.35357,-0.61513 0.70715,-1.9985 1.06073,-2.61363 0.35357,-0.61513 0.70715,-2.15743 1.06072,-2.77255 0.35358,-0.61513 0.70716,-2.30534 1.06073,-2.92046 0.35358,-0.61513 0.70715,-2.44165 1.06073,-3.05677 0.35358,-0.61514 0.70715,-2.56581 1.06073,-3.18094 0.35357,-0.61513 0.70715,-2.67733 1.06072,-3.29246 0.35358,-0.61513 0.70716,-2.77577 1.06073,-3.3909 0.35358,-0.61513 0.70715,-2.86075 1.06073,-3.47587 0.35358,-0.61514 0.70715,-2.93191 1.06073,-3.54704 0.35357,-0.61513 0.70715,-2.98898 1.06073,-3.60411 0.35357,-0.61513 0.70715,-3.03173 1.06072,-3.64686 0.35358,-0.61513 0.70716,-3.05999 1.06073,-3.67512 0.35358,-0.61513 0.70715,-3.073664 1.06073,-3.688796 0.35358,-0.61513 0.70715,-3.07266 1.06073,-3.68779 0.35357,-0.61513 0.70715,-3.05701 1.06073,-3.67214 0.35357,-0.61513 0.70715,-3.02678 1.06072,-3.64191 0.35358,-0.61513 0.70715,-2.98208 1.06073,-3.5972 0.35358,-0.61513 0.70715,-2.92308 1.06073,-3.53821 0.35357,-0.61512 0.70715,-2.85002 1.06073,-3.46515 0.35357,-0.61513 0.70715,-2.76321 1.06072,-3.37833 0.35358,-0.61513 0.70716,-2.66297 1.06073,-3.27809 0.35358,-0.61513 0.70715,-2.5497 1.06073,-3.16483 0.35358,-0.61512 0.70715,-2.42386 1.06073,-3.03898 0.35357,-0.61513 0.70715,-2.28594 1.06073,-2.90108 0.35357,-0.61512 0.70715,-2.1365 1.06072,-2.75162 0.35358,-0.61513 0.70716,-1.976137 1.06073,-2.591269 0.35358,-0.615126 0.70715,-1.805463 1.06073,-2.420588 0.35358,-0.615132 0.70715,-1.625185 1.06073,-2.240311 0.35357,-0.615132 0.70715,-1.436001 1.06072,-2.051127 0.35358,-0.615126 0.70716,-1.238668 1.06073,-1.853794 0.35358,-0.615125 0.70715,-1.033967 1.06073,-1.649093 0.35358,-0.615126 0.70715,-0.822715 1.06073,-1.437841 0.35357,-0.615127 0.70715,-0.605752 1.06073,-1.22088 0.35357,-0.615127 0.70715,-0.38394 1.06072,-0.999067 0.35358,-0.615127 0.70716,-0.158157 1.06073,-0.773285 0.35358,-0.615127 0.70715,0.0707 1.06073,-0.544429 0.35358,-0.615127 0.70715,0.301715 1.06073,-0.313412 0.35357,-0.615127 0.70715,0.533979 1.06073,-0.08115 0.35357,-0.615127 0.70715,0.766564 1.06072,0.151437 0.35358,-0.615127 0.70715,0.998547 1.06073,0.38342 0.35358,-0.615127 0.70715,1.229008 1.06073,0.613881 0.35357,-0.615127 0.70715,1.457029 1.06073,0.841902 0.35357,-0.615127 0.70715,1.681706 1.06072,1.066579 0.35358,-0.615127 0.70716,1.902147 1.06073,1.287015 0.35358,-0.615124 0.70715,2.117475 1.06073,1.502343 0.35358,-0.615125 0.70715,2.326829 1.06073,1.711703 0.35357,-0.615126 0.70715,2.529387 1.06073,1.914261 0.35357,-0.615131 0.70715,2.724333 1.06072,2.109207 0.35358,-0.615126 0.70716,2.910909 1.06073,2.295778 0.35358,-0.615126 0.70715,3.08836 1.06073,2.47323 0.35358,-0.615126 0.70715,3.25599 1.06073,2.64086 0.35357,-0.61512 0.70715,3.41311 1.06072,2.79799 0.35358,-0.61513 0.70716,3.55913 1.06073,2.944 0.35358,-0.61513 0.70715,3.69345 1.06073,3.07832 0.35358,-0.61512 0.70715,3.81554 1.06073,3.20041 0.35357,-0.61512 0.70715,3.92492 1.06073,3.30979 0.35357,-0.61513 0.70715,4.02114 1.06072,3.40601 0.35358,-0.61513 0.70716,4.10383 1.06073,3.4887 0.35358,-0.61512 0.70715,4.17266 1.06073,3.55754 0.35358,-0.61513 0.70715,4.22736 1.06073,3.61223 0.35357,-0.61513 0.70715,4.26771 1.06073,3.65258 0.35357,-0.61513 0.70715,4.29354 1.06072,3.67841 0.35358,-0.61512 0.70715,4.304776 1.06073,3.689656 0.35358,-0.615138 0.70715,4.30132 1.06073,3.68619 0.35357,-0.61512 0.70715,4.28324 1.06073,3.66812 0.35357,-0.61513 0.70715,4.25058 1.06072,3.63545 0.35358,-0.61512 0.70716,4.20349 1.06073,3.58836 0.35358,-0.61513 0.70715,4.14212 1.06073,3.527"
       style="fill:none;stroke:#ff0000;stroke-width:1.2993294;stroke-linecap:round;stroke-linejoin:round;stroke-miterlimit:4;stroke-opacity:1;stroke-dasharray:none;stroke-dashoffset:0"
       inkscape:connector-curvature="0"
       sodipodi:nodetypes="cssscssssssscsscsssscsscssssssssssssssssssssscsssssssssscsscssscsssssscssssscssscccssssssssssssssssscsscsssssssccsssssscscscsscscssssssscssscsssccssssscssscssssssssssscssssssssccsssssssssscssscssssssssssscssscssssscsssssssscssscscsssssssccsccsssssssscsssssscscssssssssssssssscsscscsssssscssscsssscscc" />
  </g>
</svg>
